<svg width="255" height="185" viewBox="0 0 255 185" fill="none" xmlns="http://www.w3.org/2000/svg">
<path d="M21.5104 184.375C15.5387 184.375 10.4602 182.283 6.2749 178.1C2.09163 173.915 0 168.836 0 162.865V22.2203C0 16.2486 2.21045 11.0523 6.63136 6.63136C11.0523 2.21046 16.2486 0 22.2203 0H89.7046L114.288 24.5833H211.321C216.822 24.5833 221.566 26.3605 225.552 29.9148C229.539 33.4671 231.847 37.8358 232.478 43.0208H106.747L82.1637 18.4375H22.2203C21.1161 18.4375 20.2096 18.7919 19.5007 19.5007C18.7919 20.2096 18.4375 21.1161 18.4375 22.2203V162.155C18.4375 163.021 18.6547 163.73 19.089 164.281C19.5212 164.834 20.0918 165.308 20.8006 165.701L49.474 69.9672H254.225L224.464 169.106C223.061 173.721 220.434 177.42 216.582 180.202C212.729 182.984 208.454 184.375 203.759 184.375H21.5104ZM40.1139 165.937H206.122L229.31 88.4047H63.3021L40.1139 165.937Z" fill="#166534"/>
</svg>
